<?xml version="1.0" standalone="no"?>
<!DOCTYPE svg PUBLIC "-//W3C//DTD SVG 20010904//EN"
 "http://www.w3.org/TR/2001/REC-SVG-20010904/DTD/svg10.dtd">
<svg version="1.0" xmlns="http://www.w3.org/2000/svg"
 width="351.000000pt" height="351.000000pt" viewBox="0 0 351.000000 351.000000"
 preserveAspectRatio="xMidYMid meet">

<g transform="translate(0.000000,351.000000) scale(0.100000,-0.100000)"
fill="#000000" stroke="none">
<path d="M1535 3074 c-173 -30 -360 -104 -505 -200 -154 -101 -316 -281 -397
-441 -37 -73 -39 -74 -70 -68 -81 15 -180 -49 -203 -129 -7 -25 -10 -61 -8
-81 4 -32 1 -38 -23 -51 -27 -13 -47 -49 -35 -62 4 -3 20 2 35 11 36 21 60 22
87 2 28 -19 38 -8 19 21 -8 13 -19 41 -24 64 -39 176 205 239 251 65 10 -36
16 -44 38 -47 l27 -4 -18 40 c-24 54 -24 122 0 162 74 122 251 132 348 20 42
-47 57 -97 49 -161 -5 -43 -3 -54 10 -59 22 -8 21 -9 33 25 25 72 9 157 -41
221 -38 49 -76 75 -141 98 -28 11 -43 20 -32 20 30 1 96 26 88 33 -3 4 1 7 10
7 10 0 17 5 17 10 0 6 -8 10 -18 10 -33 0 -33 14 0 24 22 7 40 24 54 50 l22
39 15 -30 c9 -16 24 -36 33 -44 17 -13 17 -13 1 11 -21 30 -22 53 -2 26 13
-17 15 -17 15 -3 0 10 12 18 34 23 27 4 34 10 31 24 -3 14 1 17 12 13 11 -4
14 -2 9 5 -9 15 -1 15 27 0 20 -10 21 -10 8 5 -7 10 -21 17 -30 17 -10 1 -6 6
12 16 15 8 27 20 27 26 0 6 11 -1 25 -16 28 -30 45 -27 45 9 0 13 5 27 12 31
7 4 8 3 4 -4 -11 -19 5 -14 20 6 13 16 14 16 7 -2 -4 -13 -3 -17 4 -13 6 4 14
1 17 -5 4 -7 4 -3 2 10 -5 26 31 55 61 50 10 -2 17 2 16 7 -1 6 10 12 25 13
22 1 24 0 12 -9 -12 -8 -10 -10 9 -5 14 3 31 0 38 -6 9 -7 13 -7 13 1 0 8 6 8
21 -1 15 -9 23 -10 26 -2 2 6 10 20 18 30 9 12 6 -6 -8 -52 l-22 -70 -36 25
c-20 14 -35 28 -34 31 2 3 -7 6 -18 7 -12 0 -40 4 -63 8 l-41 7 -6 -75 c-4
-42 -4 -83 -1 -92 5 -12 -2 -15 -34 -15 -46 0 -174 -37 -184 -53 -4 -6 1 -17
11 -24 30 -20 87 -116 73 -121 -20 -6 -132 -91 -132 -99 0 -5 19 -19 43 -32
23 -13 56 -35 74 -48 l32 -24 -40 -52 c-21 -29 -39 -55 -39 -58 0 -8 148 -49
177 -49 17 0 21 -8 26 -62 4 -35 9 -73 13 -84 4 -17 0 -23 -19 -28 -25 -6
-127 -91 -127 -106 0 -12 178 -184 207 -198 14 -8 52 -18 85 -22 74 -11 98
-31 98 -79 -1 -48 -25 -150 -32 -131 -4 14 -48 -195 -48 -236 -1 -31 -22 -52
-45 -43 -11 4 -35 8 -52 8 -45 1 -42 21 2 21 19 0 35 5 35 10 0 6 -13 10 -30
10 -16 0 -30 5 -30 10 0 6 11 10 25 10 14 0 25 5 25 10 0 6 -9 10 -20 10 -38
0 -20 19 23 23 l42 4 -47 1 c-43 2 -47 0 -57 -28 -5 -17 -17 -30 -25 -30 -17
0 -39 -34 -29 -44 3 -3 -1 -6 -11 -6 -20 0 -16 20 17 85 31 62 88 198 84 201
-5 6 -117 -147 -167 -227 -24 -40 -46 -66 -48 -59 -3 7 0 15 4 19 5 3 22 24
37 46 28 39 27 38 -15 -7 -25 -27 -48 -48 -51 -48 -13 0 -7 22 18 58 l25 37
-42 10 c-23 6 -43 16 -46 23 -4 14 17 16 38 3 8 -6 18 -7 24 -4 5 3 -6 11 -25
17 -19 7 -36 9 -39 5 -3 -4 -16 2 -30 13 l-24 20 34 29 c61 51 223 157 283
185 32 14 56 28 54 30 -7 7 -138 -45 -197 -78 -30 -17 -77 -47 -105 -67 -62
-46 -76 -55 -73 -44 1 4 -1 22 -4 40 -5 23 -14 32 -30 35 -16 2 7 15 74 42 54
22 95 42 93 45 -3 3 -64 -15 -136 -40 l-130 -44 -19 25 c-11 14 -20 28 -20 31
0 6 145 43 275 70 l60 13 -37 6 c-20 4 -48 14 -62 24 -21 13 -26 14 -26 2 0
-12 -40 -26 -77 -26 -22 0 -1 24 52 60 l42 29 34 -21 c19 -11 48 -33 64 -49
25 -24 35 -27 59 -21 29 8 28 9 -68 83 -54 40 -113 85 -133 98 l-35 25 -35
-19 c-19 -11 -45 -32 -58 -47 -24 -28 -42 -105 -31 -133 9 -23 -8 -18 -37 13
-23 24 -27 37 -27 88 0 74 -24 127 -78 176 -61 55 -104 71 -200 72 l-84 1 5
43 c4 40 3 42 -23 42 -30 0 -40 -18 -40 -76 0 -26 -5 -33 -26 -37 l-27 -5 6
59 c5 56 4 59 -18 59 -25 0 -35 -22 -35 -83 0 -27 -5 -39 -18 -43 -34 -10
-138 -64 -164 -86 -27 -23 -27 -24 -11 -56 8 -18 44 -63 79 -100 l62 -68 -33
-40 c-19 -21 -34 -44 -35 -50 0 -5 13 -28 30 -51 l30 -41 -22 -48 c-15 -35
-22 -70 -22 -123 -1 -70 0 -75 28 -95 16 -11 53 -41 83 -64 30 -24 60 -42 67
-39 7 3 26 26 42 51 16 25 31 45 34 45 3 0 34 -45 69 -100 114 -175 305 -343
501 -437 193 -93 365 -132 582 -132 457 0 874 231 1098 608 l43 72 28 -48 c45
-79 49 -80 115 -22 33 29 72 59 88 68 28 17 28 17 23 97 -3 53 -12 96 -26 125
l-21 43 36 44 36 44 -41 49 -41 48 45 40 c46 41 115 135 115 156 -1 15 -84 69
-143 92 -57 22 -65 34 -68 97 -3 43 -5 47 -29 47 -26 0 -26 -1 -19 -52 8 -62
6 -68 -20 -61 -19 5 -31 40 -31 89 0 20 -5 24 -33 24 -32 0 -32 -1 -29 -42 l4
-43 -61 3 c-123 7 -226 -50 -276 -152 -20 -41 -26 -67 -24 -105 2 -45 -1 -55
-27 -82 l-29 -30 -6 62 c-6 60 -9 66 -54 106 -26 24 -54 43 -63 43 -10 0 -37
-16 -62 -35 -25 -19 -70 -52 -100 -74 -30 -22 -68 -51 -85 -64 l-29 -24 31 -7
c27 -6 36 -3 60 22 15 16 44 39 64 51 l36 21 39 -28 c52 -38 72 -62 51 -62
-37 0 -77 14 -77 27 0 11 -6 10 -28 -6 -15 -10 -43 -21 -62 -23 -32 -3 -30 -5
25 -16 165 -36 275 -65 275 -72 0 -4 -9 -18 -19 -31 l-20 -24 -63 23 c-70 26
-231 73 -235 68 -1 -1 48 -22 110 -46 70 -28 104 -46 91 -48 -16 -2 -24 -14
-30 -43 l-9 -40 -61 44 c-74 54 -172 108 -238 130 -82 28 -76 19 19 -31 84
-43 242 -149 265 -177 12 -14 -50 -85 -74 -85 -8 0 -18 -5 -21 -10 -4 -6 -11
-8 -16 -5 -14 9 -11 -1 11 -37 24 -40 26 -62 4 -54 -8 3 -12 2 -9 -3 3 -5 1
-12 -5 -16 -6 -4 -10 4 -10 19 0 14 -4 28 -10 31 -6 4 -7 -1 -4 -12 5 -15 4
-15 -8 2 -9 11 -18 30 -22 43 -4 12 -12 22 -17 22 -5 0 -9 7 -9 15 0 8 -4 15
-8 15 -4 0 -15 12 -24 28 -18 29 -108 137 -108 128 0 -2 25 -60 56 -128 31
-68 58 -131 61 -140 9 -30 -14 -20 -27 12 -10 23 -16 28 -25 20 -15 -12 -19
-7 -29 33 -6 25 -10 27 -54 25 l-47 -1 43 -4 c42 -4 60 -23 22 -23 -11 0 -20
-4 -20 -10 0 -5 11 -10 25 -10 14 0 25 -4 25 -10 0 -5 -16 -10 -35 -10 -19 0
-35 -4 -35 -10 0 -5 18 -10 40 -10 57 0 50 -16 -10 -24 -35 -5 -49 -11 -44
-19 3 -7 -3 -1 -14 12 -13 16 -26 66 -41 155 -13 72 -29 142 -38 154 -8 13
-17 48 -20 78 -7 70 9 90 80 99 87 12 133 38 214 125 42 44 82 80 89 80 8 0
14 4 14 10 0 16 -89 98 -122 112 -26 11 -29 17 -23 43 3 17 9 54 12 83 5 45 9
52 27 52 21 0 167 38 174 45 2 2 -15 29 -38 59 l-42 56 23 20 c13 11 50 33 81
49 l58 29 -29 24 c-16 14 -49 38 -75 54 -25 16 -46 33 -46 38 0 5 20 37 45 72
41 57 44 64 28 72 -34 18 -127 42 -163 42 l-37 0 -6 83 c-3 48 -2 83 4 85 5 2
16 11 25 19 11 12 18 13 27 4 8 -8 8 -11 -1 -11 -7 0 -12 -5 -12 -11 0 -7 9
-9 21 -6 16 4 18 3 9 -8 -9 -10 -6 -15 10 -20 11 -3 17 -11 14 -17 -4 -6 1 -6
14 1 12 6 25 19 30 28 9 14 11 14 21 -5 6 -11 20 -24 31 -27 26 -8 25 -18 -2
-30 -12 -6 -24 -17 -26 -25 -4 -11 -1 -10 12 3 17 17 42 24 32 9 -2 -4 4 -8
15 -8 21 0 25 12 7 19 -10 4 -10 6 0 6 7 1 10 6 6 13 -4 7 -3 8 5 4 6 -4 9
-12 6 -17 -4 -5 1 -12 10 -15 13 -5 13 -9 3 -22 -11 -13 -10 -14 7 -4 17 9 21
7 21 -8 0 -10 -6 -16 -12 -13 -7 2 -15 -1 -20 -8 -5 -8 -2 -11 8 -6 9 3 21 0
28 -6 10 -9 11 -9 6 1 -4 6 -2 12 5 12 6 0 9 -8 7 -18 -3 -11 0 -19 7 -19 7 0
11 6 8 14 -3 7 0 13 6 13 6 0 11 -6 11 -14 0 -13 35 -30 55 -26 6 1 17 3 26 5
9 2 16 -2 16 -8 -1 -35 4 -48 15 -41 8 5 9 2 4 -11 -5 -15 -4 -16 8 -6 10 8
16 9 21 1 12 -19 -7 -32 -41 -28 -19 2 -34 0 -34 -4 0 -4 31 -8 70 -8 75 0 90
-10 90 -59 0 -5 8 -12 18 -14 9 -2 -6 -2 -34 0 -148 15 -274 -87 -276 -223 -2
-61 2 -68 32 -59 15 5 19 12 14 27 -11 36 16 106 57 142 82 75 213 71 297 -7
49 -46 68 -129 41 -179 -10 -19 -9 -20 7 -13 11 4 42 16 69 27 91 36 181 11
282 -77 58 -51 73 -55 73 -21 0 15 -16 41 -43 68 -34 34 -45 53 -50 87 -11 83
-77 141 -161 141 -50 0 -53 2 -64 33 -17 48 -104 186 -152 239 -25 29 -39 53
-34 60 4 7 4 10 -1 6 -4 -4 -37 20 -74 53 -182 166 -418 282 -658 324 -107 19
-339 18 -448 -1z m450 -40 c356 -58 686 -292 855 -606 23 -43 40 -84 37 -90
-2 -7 -16 10 -30 39 -15 29 -40 67 -55 85 -15 18 -44 56 -64 83 -79 110 -251
257 -388 332 -260 143 -603 181 -900 102 -242 -65 -480 -217 -615 -394 -33
-43 -76 -95 -96 -114 -20 -20 -49 -57 -64 -83 -38 -68 -41 -59 -4 15 52 102
107 177 208 280 288 296 687 421 1116 351z m-282 -119 c-3 -9 -8 -14 -10 -11
-3 3 -2 9 2 15 9 16 15 13 8 -4z m-43 -40 c0 -23 -21 -28 -38 -10 -10 10 -12
15 -6 11 7 -3 15 1 18 10 7 18 26 10 26 -11z m150 -94 c17 -47 56 -122 85
-166 69 -103 85 -142 85 -210 0 -217 -252 -310 -393 -144 -80 93 -72 194 28
343 35 52 71 119 80 148 10 29 27 75 38 102 18 43 22 47 33 31 7 -10 27 -56
44 -104z m126 101 c-10 -2 -22 0 -28 6 -6 6 0 7 19 4 21 -5 23 -7 9 -10z m-52
2 c9 -3 13 -11 9 -17 -4 -7 0 -8 13 -3 15 6 17 5 7 -5 -20 -20 -16 -24 27 -25
29 0 36 3 25 9 -9 5 -23 6 -31 3 -8 -3 -13 -2 -10 3 10 16 55 19 60 4 6 -15
61 -14 85 1 9 6 12 4 9 -5 -3 -8 -13 -15 -24 -17 -58 -10 -126 -35 -153 -58
l-30 -25 -12 43 c-6 24 -13 46 -15 50 -2 3 6 4 18 1 20 -4 21 -3 6 7 -19 12
-25 40 -9 40 5 0 16 -3 25 -6z m-474 -39 c0 -8 -4 -15 -9 -15 -13 0 -22 16
-14 24 11 11 23 6 23 -9z m783 -49 c7 4 6 1 -2 -7 -10 -11 -15 -11 -18 -1 -3
6 -9 10 -14 7 -5 -4 -6 1 -2 11 5 15 7 15 15 0 5 -9 15 -13 21 -10z m-842 -33
c13 -16 12 -17 -3 -4 -17 13 -22 21 -14 21 2 0 10 -8 17 -17z m192 3 c18 -7
43 -25 56 -39 21 -23 22 -28 9 -46 l-15 -21 -21 21 c-25 23 -27 20 -11 -15 9
-20 9 -29 -1 -41 -41 -49 -87 46 -64 133 7 26 6 26 47 8z m478 -54 c2 -78 -36
-126 -66 -85 -11 14 -10 23 1 45 20 39 17 43 -10 12 l-23 -28 -12 22 c-9 16
-9 27 -1 43 13 24 91 62 103 50 4 -4 8 -31 8 -59z m-546 -118 c39 -18 48 -36
32 -58 -11 -15 -16 -15 -55 -2 -51 18 -53 15 -7 -14 50 -31 47 -53 -7 -45 -56
9 -70 17 -108 65 -34 43 -35 43 35 59 59 13 73 13 110 -5z m671 4 c32 -6 60
-12 62 -14 8 -6 -30 -64 -53 -82 -28 -22 -97 -38 -116 -26 -9 5 0 18 27 41 37
32 38 33 9 23 -16 -6 -35 -16 -41 -21 -9 -7 -16 -4 -24 11 -16 29 -6 48 32 65
41 18 33 17 104 3z m454 -58 c-8 -5 -19 -10 -25 -10 -5 0 -3 5 5 10 8 5 20 10
25 10 6 0 3 -5 -5 -10z m-1141 -110 c13 -6 17 -17 14 -35 -5 -23 -10 -25 -54
-25 -66 0 -63 -18 4 -22 l52 -3 -32 -17 c-18 -10 -46 -18 -64 -18 -31 0 -109
37 -109 51 0 11 60 56 90 68 33 13 77 13 99 1z m744 -28 c23 -16 42 -33 44
-38 2 -5 -15 -19 -37 -31 -49 -29 -109 -30 -141 -3 l-24 19 50 1 c36 0 46 3
35 10 -8 5 -32 10 -52 10 -35 0 -38 2 -38 29 0 34 15 41 78 36 29 -2 58 -13
85 -33z m-703 -132 c15 -35 17 -31 -35 -58 -39 -20 -39 -21 -12 -22 16 0 37 5
48 10 29 16 23 -5 -8 -30 -24 -19 -37 -21 -91 -17 -35 3 -68 9 -73 14 -15 15
76 111 114 122 18 5 35 10 38 10 4 1 12 -13 19 -29z m583 16 c35 -14 107 -90
107 -112 0 -29 -123 -35 -164 -9 -37 25 -32 34 17 29 l42 -5 -40 22 c-22 12
-41 23 -43 24 -7 6 29 65 39 65 5 0 24 -6 42 -14z m958 -15 c36 -36 40 -66 7
-54 -30 11 -148 10 -172 -1 -16 -8 -17 -6 -11 15 20 72 121 94 176 40z m-1455
-105 c18 -14 18 -16 2 -44 -23 -38 -23 -48 -1 -31 15 12 16 12 10 -3 -4 -10
-10 -26 -13 -35 -5 -17 -5 -17 9 -1 8 10 18 14 22 10 5 -4 6 -2 2 3 -3 6 1 21
9 35 l13 25 1 -25 c0 -37 -33 -84 -71 -103 -59 -27 -62 -26 -70 26 -9 56 2
101 33 134 25 27 28 28 54 9z m400 -17 c26 -27 29 -37 29 -94 0 -35 -3 -67 -7
-71 -10 -9 -68 14 -95 39 -12 11 -27 35 -34 54 -13 39 -4 58 10 21 5 -13 16
-30 25 -37 15 -13 16 -11 6 13 -14 37 -12 45 5 22 20 -26 19 -13 -1 25 -14 29
-14 32 3 45 25 18 25 18 59 -17z m-235 -84 c5 -30 7 -33 8 -12 0 15 1 30 0 34
-1 9 29 21 53 22 12 1 22 -14 32 -50 22 -74 10 -119 -54 -207 l-31 -43 -31 38
c-65 81 -83 158 -53 229 12 30 19 35 42 32 24 -3 29 -9 34 -43z m-930 -213
c83 -43 123 -134 99 -222 -14 -52 -29 -60 -23 -12 3 23 -1 50 -11 72 -9 19
-14 26 -11 16 6 -19 5 -19 -15 -1 -11 10 -20 26 -20 35 0 10 -9 28 -19 41
l-19 24 5 -27 c5 -27 5 -27 -31 -16 -20 6 -39 8 -43 3 -5 -4 -3 -10 4 -12 25
-9 76 -49 90 -69 13 -20 12 -21 -19 -22 -25 0 -41 -10 -67 -39 -19 -21 -31
-32 -27 -25 4 6 3 12 -3 12 -5 0 -12 -8 -14 -17 -2 -10 -3 -7 -1 7 1 14 8 44
15 67 21 70 -6 131 -86 190 l-30 22 86 1 c76 0 93 -4 140 -28z m2046 -12 c-27
-25 -52 -58 -62 -85 -16 -41 -16 -48 -1 -94 16 -49 22 -114 8 -80 -14 32 -83
82 -113 82 -27 0 -28 2 -16 21 14 20 65 60 90 69 7 2 9 8 4 12 -4 5 -23 3 -43
-3 -35 -10 -36 -10 -31 14 7 36 -20 11 -28 -27 -4 -16 -11 -31 -16 -35 -18
-11 -51 -87 -46 -105 3 -11 2 -19 -3 -19 -4 0 -13 21 -19 46 -23 90 29 189
119 228 22 9 67 15 119 16 l84 0 -46 -40z m-1254 16 c43 -18 85 -68 93 -112 3
-19 4 -37 2 -40 -6 -5 -68 46 -116 96 -18 19 -30 27 -27 18 6 -15 3 -17 -23
-12 -17 4 -32 1 -36 -5 -4 -6 0 -11 11 -11 39 0 138 -83 155 -131 5 -12 -4
-10 -40 8 -25 13 -51 23 -57 23 -6 0 -24 14 -40 30 -16 17 -35 30 -42 30 -8 0
-12 4 -9 8 3 5 -12 16 -32 26 -20 9 -30 11 -22 4 8 -7 21 -22 29 -33 8 -11 -4
-2 -26 20 -32 32 -38 43 -29 54 31 39 146 54 209 27z m456 0 c53 -28 54 -39
10 -82 -22 -21 -37 -31 -34 -21 4 9 11 17 15 17 4 0 10 7 14 15 4 12 1 12 -22
-2 -38 -25 -44 -36 -25 -50 9 -7 12 -13 7 -13 -6 0 -15 5 -22 12 -9 9 -17 7
-34 -10 -27 -25 -138 -76 -138 -63 0 5 21 32 46 60 30 33 59 55 85 62 49 15
52 34 3 26 -32 -5 -34 -4 -23 11 7 9 -6 -1 -29 -23 -33 -30 -45 -37 -51 -26
-6 9 -11 10 -15 2 -4 -6 -1 -11 6 -11 7 0 0 -11 -15 -25 -15 -14 -27 -31 -27
-38 0 -7 -5 -5 -10 4 -11 19 1 69 25 105 37 56 167 84 234 50z m-1458 -32 c42
-21 69 -70 68 -124 0 -34 -2 -40 -9 -25 -4 12 -15 27 -24 34 -9 7 -13 18 -9
25 3 6 3 8 -2 4 -8 -8 -80 25 -107 50 -10 8 -18 11 -18 5 0 -6 -11 -8 -24 -6
-13 3 -32 1 -41 -5 -14 -7 -6 -11 33 -16 54 -7 116 -45 145 -90 l18 -27 -38 7
c-21 3 -60 18 -88 31 -27 14 -67 31 -87 39 -33 11 -39 11 -49 -4 -9 -15 -10
-15 -5 2 5 14 2 17 -9 12 -9 -3 -13 -2 -10 4 4 6 -4 14 -16 18 -21 8 -21 9 12
29 34 21 96 48 134 57 30 7 93 -3 126 -20z m2501 -11 c89 -40 90 -44 17 -114
-74 -72 -118 -96 -178 -98 -24 0 -42 2 -39 5 3 3 25 5 48 6 30 0 38 3 29 10
-10 7 -8 8 8 3 15 -4 29 1 42 14 12 12 26 21 31 21 6 0 13 7 16 15 4 8 12 15
19 15 13 0 29 29 21 37 -7 7 -100 -19 -131 -37 -37 -22 -105 -44 -112 -37 -3
3 4 19 16 36 26 37 113 81 160 81 31 1 33 2 18 11 -11 6 -29 9 -43 6 -13 -2
-25 1 -27 7 -3 7 -11 5 -23 -5 -10 -9 -34 -24 -51 -33 -31 -15 -32 -15 -27 1
2 10 -1 7 -8 -7 -7 -14 -15 -27 -18 -30 -3 -3 -16 -18 -28 -34 l-22 -29 0 37
c0 137 124 190 282 119z m-1342 -322 c0 -242 -2 -268 -16 -268 -15 0 -16 12
-10 105 3 58 6 181 6 274 0 110 3 167 10 163 6 -4 10 -106 10 -274z m-568 223
c17 -16 15 -19 -38 -60 -31 -24 -61 -44 -67 -44 -19 0 2 75 28 98 31 26 52 28
77 6z m1192 -15 c15 -18 26 -43 26 -60 0 -29 0 -29 -27 -15 -16 8 -44 28 -63
45 -34 30 -34 31 -16 46 30 23 51 18 80 -16z m691 1 c-3 -5 -12 -10 -18 -10
-7 0 -6 4 3 10 19 12 23 12 15 0z m-2454 -83 c-10 -9 -11 -8 -5 6 3 10 9 15
12 12 3 -3 0 -11 -7 -18z m209 -22 c-7 -8 -18 -15 -24 -15 -6 0 -24 -7 -40
-15 -16 -9 -31 -14 -33 -12 -6 6 34 38 69 55 35 18 48 11 28 -13z m1916 -27
l19 -22 -25 17 c-13 9 -34 17 -45 17 -23 0 -45 17 -45 36 0 16 72 -20 96 -48z
m-2199 36 c-3 -3 -12 -4 -19 -1 -8 3 -5 6 6 6 11 1 17 -2 13 -5z m98 -64 c17
-33 18 -40 6 -59 -7 -11 -16 -8 -45 15 -49 39 -49 74 0 74 16 0 29 -10 39 -30z
m2273 7 c2 -12 -10 -32 -33 -53 -21 -19 -39 -34 -41 -34 -12 0 -1 76 13 92 21
23 57 20 61 -5z m-2380 -4 c2 -9 -7 -13 -25 -13 -15 0 -35 -5 -43 -10 -11 -7
-5 -10 23 -10 56 0 106 -32 107 -68 0 -10 -5 -10 -20 -2 -11 6 -20 8 -20 5 0
-3 -9 -1 -20 5 -10 6 -45 12 -77 14 -32 3 -59 9 -61 15 -2 6 12 27 32 47 28
28 42 35 67 32 18 -2 34 -9 37 -15z m2519 -18 c53 -53 45 -61 -69 -67 -32 -1
-58 -6 -58 -9 0 -4 -9 -9 -20 -12 -30 -8 -25 17 11 47 20 17 42 26 65 26 21 0
33 4 29 10 -3 6 -19 10 -36 10 -28 0 -37 9 -22 23 18 19 67 5 100 -28z m-2073
-111 c39 -61 29 -85 -36 -89 -40 -2 -48 0 -54 17 -3 11 -3 30 0 42 6 24 43 76
54 76 4 0 20 -21 36 -46z m1594 5 c17 -25 22 -43 18 -66 l-5 -33 29 21 c23 18
36 20 74 15 25 -4 48 -10 50 -15 3 -4 -5 -25 -17 -46 -16 -28 -30 -41 -47 -42
-15 -2 -19 0 -10 4 8 3 20 12 27 19 11 10 6 12 -23 7 -20 -3 -39 -2 -43 3 -3
5 -19 17 -36 26 -16 9 -30 21 -30 27 0 5 -5 15 -11 21 -8 8 -13 7 -17 -4 -4
-9 -1 -16 6 -17 7 0 -1 -5 -17 -10 -35 -10 -33 -11 -41 21 -6 27 41 113 60
107 5 -2 20 -19 33 -38z m-1830 4 l33 -6 -52 -28 c-29 -16 -54 -28 -55 -26 -2
2 -1 20 3 41 4 29 9 36 22 31 9 -4 31 -9 49 -12z m2067 -19 c3 -20 5 -37 3
-38 -2 -2 -26 9 -54 24 l-52 28 42 10 c22 5 44 10 47 11 4 0 10 -15 14 -35z
m-1685 -43 c0 -34 -18 -69 -41 -82 -19 -10 -25 -9 -40 10 -9 11 -22 21 -28 21
-20 0 -12 38 11 54 12 9 39 16 60 16 31 0 38 -4 38 -19z m1331 -2 c21 -21 22
-56 2 -52 -7 2 -15 -6 -18 -17 -12 -39 -60 -15 -75 38 -14 52 -14 52 30 52 27
0 47 -7 61 -21z m-1951 -19 c3 0 -12 -16 -33 -35 -49 -45 -73 -100 -55 -123
12 -15 11 -16 -4 -3 -21 16 -24 71 -7 122 18 53 26 59 62 48 18 -5 34 -9 37
-9z m110 15 c0 -16 -39 -65 -44 -56 -4 6 -2 11 5 11 7 0 10 2 7 5 -11 11 -34
-7 -52 -39 -15 -27 -51 -56 -71 -56 -9 0 9 36 33 69 26 35 122 88 122 66z
m256 -19 l28 -23 -22 -23 c-12 -13 -22 -27 -22 -31 0 -4 -10 -9 -22 -12 -25
-7 -53 13 -74 55 -19 37 -18 46 9 51 52 10 77 6 103 -17z m2035 13 c19 -7 47
-23 62 -38 28 -26 62 -79 55 -87 -10 -9 -49 11 -63 32 -9 14 -20 22 -25 19 -4
-3 -6 4 -3 15 5 19 -6 26 -32 20 -5 -1 -7 2 -3 5 4 4 -3 16 -15 26 -26 22 -22
23 24 8z m164 -32 c17 -46 17 -138 0 -144 -6 -2 -10 17 -10 43 -1 42 -5 51
-43 84 l-41 37 32 11 c17 5 35 10 39 11 3 1 14 -18 23 -42z m-2365 -41 c-5 -5
-10 -32 -10 -58 0 -54 -7 -58 -39 -24 -18 19 -22 31 -17 53 9 37 46 66 64 51
9 -8 10 -14 2 -22z m290 19 c55 -28 52 -105 -4 -131 -29 -14 -37 -15 -62 -3
-55 27 -57 109 -4 136 32 16 35 16 70 -2z m1587 -13 c34 -45 21 -102 -27 -122
-59 -24 -125 45 -97 101 25 48 94 60 124 21z m253 -12 c20 -36 12 -68 -20 -85
l-31 -16 4 38 c3 21 0 46 -5 56 -5 10 -7 25 -4 33 7 19 40 3 56 -26z m-1667
-32 c33 -24 34 -31 2 -52 -31 -20 -91 -34 -82 -19 4 6 -1 10 -10 9 -9 0 -18 5
-21 13 -3 9 0 11 8 6 9 -6 12 -4 8 6 -3 8 -9 22 -13 31 -5 13 -1 20 16 26 29
11 55 5 92 -20z m1235 26 c16 -5 22 -13 21 -33 -1 -14 0 -32 2 -40 2 -9 -7
-19 -24 -25 -23 -8 -36 -6 -72 14 -25 14 -45 28 -45 31 0 10 71 56 90 58 3 0
15 -2 28 -5z m-1546 -58 c3 -16 0 -27 -9 -30 -8 -3 -11 -11 -7 -17 4 -8 9 -7
15 2 4 7 11 10 15 6 4 -3 1 -14 -6 -22 -9 -11 -27 -15 -59 -13 -56 4 -63 22
-26 67 33 39 71 42 77 7z m1831 12 c27 -21 49 -71 34 -80 -23 -14 -94 -9 -108
9 -13 15 -12 15 8 5 13 -7 24 -8 27 -3 4 5 2 11 -4 13 -6 2 -12 18 -14 36 -4
28 -2 32 18 32 12 0 30 -6 39 -12z m-1409 -11 c4 4 4 0 0 -10 -9 -25 -44 -23
-37 3 4 15 9 18 18 10 6 -5 15 -7 19 -3z m960 -14 c4 -9 1 -21 -5 -27 -9 -8
-10 -8 -6 0 4 7 -3 14 -18 18 -14 4 -25 11 -25 16 0 17 47 11 54 -7z m-1151
-83 c10 -41 -5 -54 -48 -44 -59 14 -66 37 -25 73 33 28 36 29 51 13 9 -9 19
-28 22 -42z m1387 11 c0 -7 -8 -20 -17 -28 -16 -13 -16 -13 4 -4 12 6 23 16
26 23 2 7 7 10 11 7 14 -13 -31 -50 -66 -56 l-38 -6 0 41 c0 30 6 45 21 56 18
13 23 12 40 -2 10 -9 19 -23 19 -31z m-1543 9 c44 -19 48 -46 13 -81 -16 -16
-35 -29 -43 -29 -14 0 -37 40 -37 65 0 19 22 66 29 62 3 -2 20 -10 38 -17z
m524 -7 c-8 -15 -10 -15 -11 -2 0 17 10 32 18 25 2 -3 -1 -13 -7 -23z m1169
-29 c0 -33 -21 -74 -37 -74 -8 0 -28 13 -44 29 -33 33 -39 71 -11 71 10 0 27
6 38 14 17 13 21 12 37 -1 9 -9 17 -26 17 -39z m-855 -14 c14 -27 12 -60 -4
-60 -4 0 -13 6 -20 13 -11 10 -13 10 -7 0 6 -11 3 -14 -19 -13 -3 0 -17 -11
-32 -24 -25 -24 -28 -24 -45 -9 -10 9 -18 29 -18 45 0 22 5 28 22 28 12 0 30
-7 40 -17 17 -15 18 -15 18 6 0 27 29 73 41 65 5 -3 16 -18 24 -34z m539 22
c3 -5 -1 -9 -9 -9 -8 0 -12 4 -9 9 3 4 7 8 9 8 2 0 6 -4 9 -8z m-1019 -63 c6
-18 8 -18 28 -4 12 8 32 15 45 15 20 0 23 -4 18 -22 -3 -13 -6 -28 -6 -35 0
-7 -8 -17 -19 -22 -14 -8 -23 -6 -38 9 -15 13 -32 18 -57 15 -44 -4 -55 19
-31 65 16 30 17 31 35 15 11 -10 22 -26 25 -36z m245 41 c0 -5 -13 -10 -30
-10 -16 0 -30 5 -30 10 0 6 14 10 30 10 17 0 30 -4 30 -10z m470 0 c0 -5 -13
-10 -30 -10 -16 0 -30 5 -30 10 0 6 14 10 30 10 17 0 30 -4 30 -10z m245 -20
c9 -17 13 -40 10 -50 -7 -23 -16 -25 -33 -8 -8 8 -15 8 -25 0 -8 -7 -17 -9
-20 -5 -4 3 -7 1 -7 -6 0 -8 -6 -11 -16 -7 -8 3 -12 2 -9 -3 3 -5 0 -13 -6
-16 -15 -10 -36 14 -44 53 -6 30 -5 32 19 32 14 0 35 -9 46 -20 14 -14 20 -16
20 -6 0 12 37 66 45 66 3 0 12 -14 20 -30z m-1462 -27 c20 -27 58 -70 86 -98
l51 -49 0 47 c0 30 4 46 10 42 6 -3 10 -29 10 -57 0 -58 -4 -53 118 -134 68
-46 257 -144 277 -144 3 0 5 25 5 55 0 30 5 55 10 55 6 0 10 -27 10 -60 l0
-59 43 -12 c91 -24 178 -39 248 -41 l74 -3 3 63 c4 82 22 80 22 -3 l0 -65 33
0 c45 0 212 28 275 46 l52 15 0 59 c0 32 4 62 10 65 6 4 10 -17 10 -55 0 -59
1 -61 23 -55 55 15 249 120 313 169 l69 53 0 51 c-1 35 4 53 13 57 11 4 13 -5
10 -40 -2 -25 -1 -45 2 -45 8 0 78 75 129 138 37 45 71 67 71 45 0 -28 -162
-213 -187 -213 -6 0 -15 -5 -19 -12 -5 -7 -2 -8 7 -3 8 5 3 -4 -11 -19 -13
-14 -30 -24 -38 -21 -7 2 -11 1 -8 -4 7 -10 -52 -54 -64 -46 -5 3 -12 0 -16
-6 -4 -8 -3 -9 4 -5 7 4 12 5 12 2 0 -12 -71 -47 -82 -40 -7 4 -10 4 -6 -1 10
-11 -50 -47 -64 -39 -7 5 -8 2 -3 -6 6 -9 2 -10 -15 -5 -14 5 -20 3 -16 -3 8
-13 -101 -55 -121 -48 -8 3 -12 2 -9 -3 8 -12 -111 -43 -136 -36 -15 5 -18 4
-13 -5 6 -10 -2 -12 -35 -7 -30 4 -39 3 -29 -4 9 -6 -11 -8 -61 -5 -53 3 -63
2 -35 -3 30 -6 14 -8 -70 -9 -78 -1 -106 1 -95 9 11 7 1 8 -35 4 -39 -5 -47
-4 -35 5 12 9 4 10 -35 5 -38 -4 -46 -3 -35 5 12 9 7 10 -20 6 -26 -5 -31 -3
-20 5 12 8 8 10 -17 7 -19 -3 -30 0 -26 5 4 6 -5 7 -21 3 -20 -5 -26 -3 -21 5
5 8 1 9 -15 4 -15 -5 -20 -4 -16 4 4 6 5 11 2 11 -2 0 -13 3 -23 6 -15 5 -16
4 -3 -6 13 -10 12 -11 -3 -6 -10 3 -23 6 -28 6 -6 0 -7 5 -4 10 6 9 -10 14
-42 13 -7 -1 -10 4 -6 10 4 6 0 8 -11 4 -11 -5 -15 -3 -10 5 5 8 2 9 -10 5
-11 -5 -15 -3 -10 5 5 8 2 9 -10 5 -11 -5 -15 -3 -10 5 5 8 2 9 -10 5 -11 -5
-15 -3 -10 5 5 8 2 9 -10 5 -11 -5 -15 -3 -10 5 5 8 2 9 -10 5 -11 -5 -15 -3
-10 5 5 8 2 9 -10 5 -9 -4 -15 -3 -12 2 6 9 -19 24 -42 26 -7 0 -22 11 -33 25
-12 14 -18 19 -14 12 6 -11 3 -12 -13 -3 -12 6 -24 17 -28 24 -5 7 0 6 11 -3
11 -9 16 -10 11 -2 -4 7 -22 19 -41 26 -18 8 -39 24 -45 36 -6 11 -26 30 -43
40 -18 11 -28 20 -23 20 4 0 -9 18 -30 39 -55 55 -85 91 -76 91 4 0 -1 5 -11
11 -9 6 -15 14 -12 20 13 19 35 7 68 -38z m1051 -50 c-16 -11 -20 -10 -30 9
-7 13 -16 22 -21 22 -4 -1 -7 3 -5 9 6 21 23 36 45 39 19 3 23 -3 25 -32 3
-24 -2 -38 -14 -47z m-254 68 c0 -14 -27 -21 -76 -21 -26 0 -44 5 -44 11 0 8
15 10 45 7 25 -3 48 -2 51 3 7 12 24 12 24 0z m430 -10 c0 -11 -80 -20 -86
-10 -2 4 6 10 18 12 42 8 68 7 68 -2z m-819 -21 c37 -21 12 -79 -29 -66 -26 9
-48 56 -30 67 18 12 35 11 59 -1z m1148 1 c23 -15 -14 -70 -47 -71 -7 0 -11 4
-8 9 3 5 -3 11 -14 14 -25 6 -17 35 14 47 27 11 38 12 55 1z m-319 -20 c0 -11
-49 -21 -55 -10 -5 6 4 10 48 18 4 0 7 -3 7 -8z m-510 -15 c-7 -7 -13 -7 -20
0 -6 6 -3 10 10 10 13 0 16 -4 10 -10z m272 -13 c25 -22 23 -68 -4 -93 -29
-27 -54 -25 -83 5 -29 28 -31 51 -9 83 18 27 69 30 96 5z m-499 -4 c43 -23 49
-60 15 -96 -27 -29 -43 -29 -73 2 -30 29 -32 58 -5 85 23 23 33 24 63 9z m356
-3 c7 -8 11 -27 9 -43 -4 -38 -39 -42 -78 -9 l-30 25 26 20 c31 25 57 27 73 7z
m267 -9 l27 -23 -28 -22 c-45 -36 -80 -27 -80 21 0 49 39 60 81 24z m329 11
c26 -12 41 -47 32 -72 -3 -8 -17 -22 -30 -31 -48 -31 -97 12 -83 71 5 20 22
34 53 43 1 1 14 -4 28 -11z m-1167 -14 c-3 -15 -85 -51 -94 -41 -10 10 10 37
34 46 42 15 64 13 60 -5z m355 0 l31 -17 -28 -23 c-30 -26 -98 -35 -77 -11 8
10 7 17 -2 26 -9 10 -8 15 7 27 25 18 30 18 69 -2z m690 3 c33 -24 5 -84 -32
-69 -26 11 -61 36 -61 44 0 8 50 37 66 38 5 0 18 -6 27 -13z m352 -1 c25 -11
35 -21 35 -37 0 -20 -2 -20 -22 -7 -13 8 -35 18 -50 22 -29 7 -39 36 -13 36 9
0 31 -7 50 -14z m-1285 -30 c0 -7 -6 -18 -12 -25 -10 -11 -10 -13 0 -7 6 4 12
2 12 -3 0 -6 -18 -11 -40 -11 -45 0 -48 7 -20 43 20 26 60 28 60 3z m1180 -11
c15 -28 14 -30 -15 -39 -27 -8 -42 3 -50 37 -7 25 -5 27 22 27 21 0 33 -7 43
-25z m-834 -39 c19 -14 19 -15 -1 -21 -11 -4 -35 -13 -52 -21 -31 -13 -33 -12
-33 6 0 19 34 50 55 50 6 0 20 -6 31 -14z m164 -53 c0 -17 -63 -33 -72 -19
-14 20 -8 46 13 67 l21 21 19 -28 c10 -16 19 -34 19 -41z m322 50 c26 -24 24
-47 -4 -38 -13 3 -33 9 -45 12 -25 6 -31 28 -10 36 23 10 40 7 59 -10z m-636
-29 c8 -33 -1 -53 -23 -49 -10 2 -24 4 -31 4 -24 2 -25 32 -2 56 26 27 48 23
56 -11z m472 24 c7 -7 12 -26 12 -43 0 -29 -2 -31 -30 -27 -17 2 -33 9 -37 15
-4 7 1 8 13 4 18 -7 18 -6 1 7 -16 12 -16 17 -5 35 15 24 29 26 46 9z m298
-30 c-4 -16 -2 -17 10 -7 11 9 14 8 14 -5 0 -18 -9 -23 -52 -30 -25 -4 -28 -2
-28 24 0 38 26 65 47 49 8 -7 12 -21 9 -31z m-945 10 c10 -18 8 -24 -7 -35
-29 -21 -54 -16 -54 10 0 46 41 63 61 25z m1117 10 c7 -7 12 -23 12 -36 0 -20
-4 -23 -22 -18 -13 3 -26 6 -29 6 -14 0 -19 33 -8 46 14 17 31 18 47 2z m-546
-33 c12 -16 9 -28 -11 -55 -19 -24 -20 -24 -40 -6 -19 17 -28 55 -16 67 8 9
60 4 67 -6z m-482 -8 c0 -20 -30 -57 -45 -57 -19 0 -37 34 -29 54 8 20 74 22
74 3z m964 -3 c5 -13 -6 -47 -20 -63 -8 -9 -54 43 -54 61 0 24 65 26 74 2z
m-585 -127 c12 -10 21 -20 19 -23 -4 -4 -46 7 -82 22 -14 5 -17 4 -11 -5 6
-10 3 -11 -14 -2 -17 10 -21 21 -21 60 l0 48 43 -41 c23 -22 53 -49 66 -59z
m241 49 c0 -38 -6 -61 -19 -77 l-19 -24 5 28 c6 29 1 32 -25 18 -9 -4 -29 -11
-44 -15 -41 -10 -25 20 24 45 22 11 47 33 56 50 9 16 18 29 20 29 1 0 2 -24 2
-54z m-400 5 c0 -14 -9 -18 -63 -25 -47 -7 -48 -7 -37 13 8 16 20 21 55 21 25
0 45 -4 45 -9z m551 -12 c10 -20 9 -21 -12 -16 -13 4 -36 7 -51 7 -18 0 -28 5
-28 15 0 11 11 15 40 15 30 0 42 -5 51 -21z"/>
<path d="M1571 2382 c-2 -67 54 -140 125 -166 113 -39 245 41 244 149 l-1 40
-14 -40 c-17 -49 -76 -102 -122 -111 -18 -3 -54 -3 -81 1 -38 6 -55 15 -89 51
-23 24 -47 58 -52 76 l-9 33 -1 -33z"/>
<path d="M1640 1776 c0 -2 8 -10 18 -17 15 -13 16 -12 3 4 -13 16 -21 21 -21
13z"/>
<path d="M1140 1680 c-6 -12 -9 -24 -7 -27 3 -2 11 5 17 17 6 12 9 24 7 27 -3
2 -11 -5 -17 -17z"/>
<path d="M2350 1691 c0 -5 9 -19 20 -32 l21 -24 -16 33 c-15 31 -25 41 -25 23z"/>
<path d="M946 1352 c-3 -5 1 -9 9 -9 8 0 12 4 9 9 -3 4 -7 8 -9 8 -2 0 -6 -4
-9 -8z"/>
<path d="M1062 1299 c2 -6 8 -10 13 -10 5 0 11 4 13 10 2 6 -4 11 -13 11 -9 0
-15 -5 -13 -11z"/>
<path d="M828 1273 c6 -3 9 -9 6 -15 -4 -6 2 -5 15 1 28 15 27 19 -6 18 -16 0
-22 -2 -15 -4z"/>
<path d="M935 1265 c-29 -28 -31 -42 -9 -73 28 -40 94 -24 109 25 4 17 -1 29
-19 48 -31 31 -50 32 -81 0z"/>
<path d="M2502 1270 c-41 -39 -17 -100 40 -100 53 0 79 74 36 104 -30 21 -50
20 -76 -4z"/>
<path d="M1698 543 c7 -3 16 -2 19 1 4 3 -2 6 -13 5 -11 0 -14 -3 -6 -6z"/>
<path d="M1728 969 c-36 -20 -13 -99 28 -99 20 0 54 37 54 58 0 22 -30 52 -51
52 -8 0 -22 -5 -31 -11z"/>
<path d="M1246 944 c-19 -18 -20 -28 -6 -55 16 -29 67 -26 81 5 23 50 -36 90
-75 50z"/>
<path d="M2188 934 c-16 -34 0 -58 40 -62 26 -3 34 2 43 21 16 36 -3 67 -42
67 -22 0 -32 -6 -41 -26z"/>
<path d="M1319 2723 c-13 -16 -12 -17 4 -4 16 13 21 21 13 21 -2 0 -10 -8 -17
-17z"/>
<path d="M2171 2737 c2 -1 13 -9 24 -17 19 -14 19 -14 6 3 -7 9 -18 17 -24 17
-6 0 -8 -1 -6 -3z"/>
<path d="M1183 2615 c0 -8 4 -12 9 -9 5 3 6 10 3 15 -9 13 -12 11 -12 -6z"/>
<path d="M2482 2596 c7 -8 15 -12 17 -11 5 6 -10 25 -20 25 -5 0 -4 -6 3 -14z"/>
<path d="M2366 2571 c-4 -5 3 -7 14 -4 23 6 26 13 6 13 -8 0 -17 -4 -20 -9z"/>
<path d="M1066 2557 c3 -10 9 -15 12 -12 3 3 0 11 -7 18 -10 9 -11 8 -5 -6z"/>
<path d="M1307 1289 c7 -7 15 -10 18 -7 3 3 -2 9 -12 12 -14 6 -15 5 -6 -5z"/>
<path d="M2188 1283 c7 -3 16 -2 19 1 4 3 -2 6 -13 5 -11 0 -14 -3 -6 -6z"/>
<path d="M2210 1260 c-12 -8 -9 -10 12 -10 15 0 30 5 33 10 8 13 -25 13 -45 0z"/>
<path d="M2 35 c-1 -19 3 -35 8 -35 6 0 10 16 10 35 0 46 -16 46 -18 0z"/>
</g>
</svg>
