<?xml version="1.0" standalone="no"?>
<!DOCTYPE svg PUBLIC "-//W3C//DTD SVG 20010904//EN"
 "http://www.w3.org/TR/2001/REC-SVG-20010904/DTD/svg10.dtd">
<svg version="1.0" xmlns="http://www.w3.org/2000/svg"
 width="311.000000pt" height="223.000000pt" viewBox="0 0 311.000000 223.000000"
 preserveAspectRatio="xMidYMid meet">

<g transform="translate(0.000000,223.000000) scale(0.100000,-0.100000)"
fill="#000000" stroke="none">
<path d="M913 2004 c-7 -19 2 -28 22 -21 19 8 19 23 0 31 -9 3 -18 -1 -22 -10z"/>
<path d="M2181 2010 c-16 -9 -6 -30 15 -30 15 0 20 25 6 34 -4 2 -14 1 -21 -4z"/>
<path d="M1356 1995 c-248 -47 -482 -170 -644 -339 -228 -238 -330 -524 -302
-847 5 -64 12 -123 14 -130 2 -8 7 -26 10 -42 l6 -27 515 0 c355 0 522 -3 538
-11 33 -15 46 -44 49 -109 2 -41 7 -55 18 -55 11 0 16 13 18 50 4 77 10 93 42
110 25 13 103 15 544 15 481 0 515 1 520 18 28 92 35 383 12 492 -90 421 -408
740 -854 857 -124 32 -362 41 -486 18z m374 -50 c330 -50 636 -252 790 -521
76 -133 126 -284 132 -401 l3 -58 -293 -3 -293 -2 -13 32 c-31 76 -29 85 12
99 80 25 80 25 26 81 -47 49 -44 57 5 14 27 -23 19 -4 -12 31 l-19 21 51 34
c28 18 51 36 51 40 0 4 -24 26 -54 48 l-55 41 35 46 c65 86 65 86 -20 98 -25
4 -46 9 -46 11 0 3 9 32 20 65 12 34 18 64 15 68 -8 7 -101 6 -148 -3 l-35 -6
-4 74 c-2 41 -7 78 -11 82 -9 10 -73 -12 -109 -38 -18 -12 -28 -15 -28 -7 0 6
-12 38 -26 70 l-27 59 -29 -18 c-17 -9 -43 -31 -58 -49 l-28 -31 -52 50 c-60
57 -66 56 -100 -27 -12 -30 -24 -55 -27 -55 -2 0 -14 7 -26 15 -12 8 -41 21
-63 29 l-42 14 -6 -36 c-3 -21 -6 -59 -6 -85 0 -41 -3 -48 -17 -43 -27 8 -160
12 -168 5 -3 -4 3 -34 15 -68 25 -74 25 -71 -2 -72 -13 0 -40 -6 -62 -12 l-38
-12 45 -62 46 -61 -55 -43 c-50 -38 -53 -43 -39 -59 9 -9 31 -26 50 -36 39
-21 42 -26 19 -44 -8 -8 -20 -23 -26 -34 -8 -17 -5 -15 19 7 50 47 50 30 -1
-22 l-47 -48 33 -15 c18 -9 43 -19 56 -23 27 -8 27 -7 4 -70 l-18 -50 -298 -3
-299 -2 7 57 c43 379 297 708 658 852 208 84 401 108 608 76z m-231 -141 c32
-40 52 -114 42 -149 -7 -23 -9 -25 -10 -9 -1 25 -19 41 -45 41 -16 0 -18 -6
-13 -56 6 -56 6 -56 -8 -21 -21 55 -17 220 6 220 4 0 17 -12 28 -26z m169 -13
c16 -51 14 -129 -3 -166 -14 -29 -14 -28 -9 25 3 35 1 48 -4 36 -7 -15 -10
-17 -17 -6 -6 9 -13 4 -26 -21 -23 -43 -25 -13 -4 46 20 55 18 57 -7 10 -12
-22 -23 -35 -25 -28 -8 23 56 143 76 143 4 0 13 -17 19 -39z m-327 -46 c36
-27 79 -89 79 -115 0 -8 -9 0 -20 18 -21 35 -26 37 -35 22 -4 -6 -1 -9 6 -8 8
2 14 -10 16 -32 2 -32 1 -33 -12 -16 -7 10 -18 15 -23 12 -5 -3 -13 4 -17 17
-4 14 -8 17 -12 9 -3 -7 6 -36 20 -65 l26 -52 -28 33 c-29 34 -51 92 -51 133
0 22 10 69 14 69 1 0 18 -11 37 -25z m489 -39 c0 -62 -20 -112 -59 -148 -20
-19 -27 -22 -15 -8 31 37 44 65 43 97 0 27 -1 27 -10 5 -5 -13 -13 -21 -18
-17 -5 3 -12 -4 -16 -15 -4 -11 -11 -18 -16 -14 -6 3 -8 12 -5 20 3 8 0 11
-10 7 -34 -13 -12 40 37 89 57 57 69 54 69 -16z m-572 -99 c37 -20 42 -31 10
-22 -15 5 -10 -2 15 -19 44 -31 47 -39 11 -25 -36 13 -38 7 -12 -26 l22 -28
-30 18 c-16 11 -37 25 -47 33 -35 30 -27 3 11 -37 21 -23 37 -41 35 -41 -16 0
-61 42 -85 79 -27 44 -39 50 -17 9 8 -15 8 -19 -1 -13 -11 7 -25 37 -36 79 -5
22 -4 22 43 16 26 -3 63 -14 81 -23z m732 16 c-1 -26 -34 -96 -53 -112 -10 -7
-17 -10 -17 -7 0 4 -15 -4 -32 -17 -57 -42 -65 -42 -20 0 49 46 55 64 12 33
-20 -14 -30 -17 -28 -8 2 7 7 16 13 20 18 13 -1 18 -33 9 -18 -5 -32 -8 -32
-6 0 2 20 15 45 29 50 30 58 41 19 25 -39 -14 -41 -3 -4 16 26 13 75 27 123
34 4 1 7 -7 7 -16z m-928 -104 c-23 -4 -47 -11 -52 -14 -6 -3 -10 -2 -10 4 0
11 30 18 75 19 23 0 20 -2 -13 -9z m569 -1 c19 -6 47 -21 62 -32 34 -25 81
-100 74 -118 -4 -9 -6 -8 -6 3 -2 30 -60 98 -103 120 -51 26 -140 29 -185 6
-47 -25 -93 -78 -108 -127 -8 -28 -14 -36 -14 -22 -1 12 5 37 13 55 43 98 164
151 267 115z m469 2 c17 -6 9 -7 -25 -3 -27 3 -52 7 -54 9 -8 7 54 2 79 -6z
m-965 -30 c-4 -6 -11 -8 -16 -5 -5 4 -9 1 -9 -4 0 -6 12 -11 28 -12 15 0 43
-7 62 -14 l35 -13 -35 -1 c-65 -1 -152 33 -133 53 11 11 75 7 68 -4z m919 2
c13 -21 -40 -47 -99 -49 l-60 -3 35 14 c19 8 46 15 60 16 14 1 19 4 13 7 -7 2
-13 9 -13 14 0 11 57 12 64 1z m-499 -71 c-9 -8 -36 -10 -30 -2 2 4 11 8 20 8
8 0 13 -3 10 -6z m-390 -55 c-29 -13 -28 -13 21 -8 29 2 60 -1 70 -7 18 -10
18 -10 -1 -11 -12 0 -25 -4 -31 -10 -5 -5 -24 -10 -42 -12 -37 -3 -31 -12 18
-27 30 -9 26 -10 -30 -5 -36 3 -76 6 -90 7 -14 1 -26 9 -27 17 -4 21 75 70
112 69 l30 0 -30 -13z m868 -18 l50 -32 -34 -28 c-34 -28 -100 -53 -122 -45
-6 2 10 9 35 15 73 19 68 32 -9 27 -66 -5 -67 -5 -30 7 40 14 40 28 0 28 -12
0 -23 5 -23 10 0 6 -3 9 -7 9 -5 -1 -17 -1 -28 0 -17 1 -18 3 -5 11 22 14 91
12 123 -5 15 -8 25 -9 21 -4 -3 6 -20 17 -38 25 -28 12 -29 13 -7 14 13 0 47
-14 74 -32z m-553 18 c0 -2 -8 -10 -17 -17 -16 -13 -17 -12 -4 4 13 16 21 21
21 13z m25 -5 c3 -5 2 -12 -3 -15 -5 -3 -9 1 -9 9 0 17 3 19 12 6z m80 -8 c-2
-10 -4 -19 -4 -21 -1 -2 -6 0 -11 3 -8 5 -7 11 1 21 15 18 18 18 14 -3z m192
-55 c-2 -13 -4 -5 -4 17 -1 22 1 32 4 23 2 -10 2 -28 0 -40z m-232 -18 c-16
-18 -14 -25 8 -21 5 1 6 -3 2 -9 -4 -7 -12 -7 -18 -2 -15 11 -48 9 -67 -3 -13
-8 -13 -7 -1 8 8 10 16 15 19 13 2 -3 11 2 19 10 8 8 19 12 24 8 5 -3 12 2 15
11 4 9 9 13 12 10 3 -2 -3 -14 -13 -25z m-414 -10 c24 -11 36 -20 26 -20 -18
0 -77 27 -77 35 0 8 5 6 51 -15z m76 -26 c-3 -3 -12 -4 -19 -1 -8 3 -5 6 6 6
11 1 17 -2 13 -5z m207 -84 l21 -25 -24 20 c-22 19 -51 66 -51 82 1 4 8 -5 17
-22 8 -16 25 -41 37 -55z m337 47 c-10 -9 -11 -8 -5 6 3 10 9 15 12 12 3 -3 0
-11 -7 -18z m-501 -47 c-28 -27 -50 -50 -48 -50 2 0 18 4 36 10 29 8 32 7 22
-5 -15 -18 -77 -38 -95 -31 -7 2 -16 0 -18 -7 -2 -7 -8 -9 -12 -5 -16 15 44
95 87 117 75 37 85 27 28 -29z m665 21 c30 -17 75 -83 75 -111 0 -8 -9 -2 -21
15 -12 17 -19 22 -15 13 7 -22 -4 -22 -52 -3 -36 16 -37 16 -13 28 25 13 30
32 9 32 -7 1 -12 7 -10 14 2 9 -3 11 -15 7 -9 -4 -14 -4 -10 0 4 5 -3 14 -15
22 -22 13 -22 13 7 7 17 -4 43 -14 60 -24z m-824 -2 l-25 -20 30 7 c16 4 37
11 47 16 10 5 21 7 24 4 3 -3 -6 -11 -21 -17 -14 -7 -26 -16 -26 -21 0 -9 -53
-11 -63 -2 -10 10 5 35 27 44 32 13 33 11 7 -11z m968 -12 c9 -12 7 -16 -11
-21 -34 -9 -60 -7 -53 3 3 6 -3 14 -12 20 -23 13 -16 13 26 1 l33 -9 -18 21
c-19 21 -19 21 2 10 11 -6 26 -17 33 -25z m-319 19 c0 -2 -8 -10 -17 -17 -16
-13 -17 -12 -4 4 13 16 21 21 21 13z m-30 -40 c0 -2 -7 -7 -16 -10 -8 -3 -12
-2 -9 4 6 10 25 14 25 6z m-399 -45 c-6 -10 -8 -21 -5 -24 3 -3 0 -8 -7 -13
-8 -5 -10 -3 -4 6 5 9 4 11 -4 6 -18 -11 6 -36 27 -29 9 2 1 -9 -18 -27 l-35
-31 33 16 c17 8 32 14 32 11 0 -8 -53 -38 -80 -46 -24 -7 -27 -5 -23 11 3 10
9 16 14 13 5 -3 6 2 3 11 -6 16 14 53 49 93 25 27 31 28 18 3z m564 -77 c14
-29 25 -55 25 -59 0 -8 -97 43 -105 55 -3 6 0 7 10 4 12 -5 14 -2 8 12 -7 18
-6 18 11 2 9 -10 22 -18 29 -18 6 0 3 6 -8 13 -11 9 -15 19 -10 27 5 9 4 11
-3 6 -11 -6 -16 6 -13 27 0 4 -3 7 -9 7 -5 0 -10 5 -10 12 0 23 51 -37 75 -88z
m-401 -51 l-7 -58 22 24 c13 15 21 19 21 10 0 -11 2 -11 10 1 13 20 12 13 -5
-44 -17 -56 -19 -78 -5 -56 5 8 10 10 10 4 0 -6 -11 -20 -23 -32 l-24 -22 -11
38 c-15 48 -15 105 -1 155 15 54 20 46 13 -20z m-101 5 c-3 -24 -10 -51 -15
-60 -16 -32 1 -19 32 24 33 46 37 44 16 -7 -8 -19 -32 -45 -55 -61 -40 -26
-64 -27 -44 -2 6 7 14 28 18 47 6 29 42 101 50 101 2 0 1 -19 -2 -42z m304
-38 c6 -53 -20 -146 -38 -134 -5 3 -7 9 -4 14 3 4 -1 23 -9 41 -8 19 -17 50
-21 69 -7 34 -7 34 12 18 18 -16 19 -16 31 3 7 10 10 32 7 47 -5 22 -4 24 5
10 6 -10 14 -40 17 -68z m126 -29 c9 -31 14 -58 12 -60 -3 -2 -23 14 -45 36
-22 22 -41 39 -43 37 -2 -2 -4 2 -4 9 0 6 -4 21 -8 32 -5 14 1 11 18 -10 l25
-30 -4 45 -3 45 18 -24 c10 -14 26 -49 34 -80z m-564 -43 c1 -34 4 -65 7 -70
10 -15 56 -8 105 17 27 13 49 20 49 15 0 -4 3 -15 6 -24 5 -12 0 -16 -21 -16
-14 0 -32 -6 -39 -12 -18 -19 -127 -11 -119 8 3 8 2 34 -1 59 l-7 45 -380 0
c-329 0 -379 2 -379 15 0 13 52 15 383 18 210 1 385 3 388 5 3 1 7 -26 8 -60z
m1421 37 c0 -13 -52 -15 -380 -15 l-380 0 0 -29 c0 -17 -4 -33 -10 -36 -11 -7
-13 13 -4 65 l6 35 384 -3 c331 -2 384 -5 384 -17z m-1045 -51 c9 -15 12 -23
6 -20 -11 7 -35 46 -28 46 3 0 12 -12 22 -26z m-665 -4 c-8 -5 -22 -7 -31 -4
-9 2 -19 -2 -23 -11 -8 -21 -178 -22 -196 0 -11 13 -16 13 -41 -1 -21 -10 -53
-14 -112 -12 -69 3 -82 6 -85 21 -3 16 14 17 250 17 166 0 248 -4 238 -10z
m202 -10 c-46 -28 -128 -28 -135 0 -5 19 0 20 81 20 l87 0 -33 -20z m951 0
c-7 -28 -95 -28 -138 0 l-30 20 87 0 c81 0 86 -1 81 -20z m555 3 c-3 -15 -16
-18 -84 -21 -57 -2 -89 2 -109 12 -26 13 -31 14 -45 1 -24 -22 -188 -21 -196
0 -4 10 -13 13 -24 10 -10 -3 -21 -1 -25 5 -4 7 72 10 240 10 229 0 246 -1
243 -17z m-801 -50 c26 5 33 2 33 -11 0 -14 -9 -17 -57 -14 -32 1 -59 7 -61
12 -2 6 -17 10 -34 10 -23 0 -29 4 -24 16 3 9 6 20 6 25 0 5 23 -2 52 -17 37
-19 61 -25 85 -21z m-875 5 c-6 -6 -14 -9 -17 -6 -3 3 -3 13 1 22 5 12 10 14
17 7 8 -8 8 -14 -1 -23z m1204 -25 c4 -19 2 -44 -3 -55 -8 -18 -10 -19 -22 -4
-12 14 -12 16 3 10 9 -3 16 -1 16 5 0 7 -7 14 -15 17 -8 4 -15 10 -15 16 0 5
5 6 10 3 6 -3 10 3 10 14 0 11 -5 23 -12 27 -7 4 -8 3 -4 -4 4 -7 2 -12 -3
-12 -13 0 -13 3 -5 24 9 25 32 1 40 -41z m-1236 16 c-8 -28 -7 -31 11 -26 20
5 20 5 3 -14 -9 -10 -21 -19 -26 -19 -11 0 -10 47 2 71 16 28 20 23 10 -12z
m233 24 c-7 -2 -13 -9 -13 -14 0 -6 5 -7 10 -4 6 3 10 1 10 -4 0 -6 -6 -11
-14 -11 -7 0 -21 -10 -29 -22 -23 -33 -20 -9 3 30 11 17 25 32 32 31 10 0 10
-2 1 -6z m797 -52 c0 -10 -7 -6 -20 14 -11 17 -20 24 -20 16 0 -8 -2 -12 -5
-9 -3 3 -2 13 1 23 7 17 9 16 26 -5 10 -12 18 -30 18 -39z m490 10 c0 -21 -16
-2 -24 29 -7 24 -6 24 8 6 9 -11 16 -27 16 -35z m-1797 19 c-3 -11 -10 -23
-16 -27 -7 -4 -8 0 -4 11 4 10 7 22 7 27 0 5 4 9 9 9 5 0 7 -9 4 -20z m-53
-12 c0 -16 -10 -18 -75 -18 -67 0 -75 2 -75 19 0 18 7 19 75 18 64 -2 75 -5
75 -19z m270 2 c0 -12 -17 -16 -85 -18 -66 -2 -85 1 -85 11 0 22 5 23 90 23
64 -1 80 -4 80 -16z m218 2 c-2 -12 -16 -18 -46 -20 -36 -3 -42 0 -42 17 0 16
7 19 46 19 37 0 45 -3 42 -16z m992 -3 c0 -18 -5 -20 -42 -17 -28 2 -44 8 -46
18 -2 11 9 16 43 18 40 2 45 0 45 -19z m302 6 c14 -20 -6 -25 -88 -23 -69 3
-84 6 -84 19 0 13 14 15 83 15 45 -1 85 -5 89 -11z m248 -7 c0 -16 -10 -18
-75 -18 -68 0 -75 2 -75 20 0 18 6 19 75 17 64 -2 75 -5 75 -19z m-1987 -43
c-3 -9 -8 -14 -10 -11 -3 3 -2 9 2 15 9 16 15 13 8 -4z m517 6 c0 -5 -11 -16
-25 -25 -29 -19 -33 -11 -8 16 17 19 33 24 33 9z m340 -13 c0 -16 -3 -19 -11
-11 -6 6 -8 16 -5 22 11 17 16 13 16 -11z m450 7 c20 -24 6 -28 -15 -5 -10 11
-13 20 -8 20 6 0 16 -7 23 -15z m500 5 c0 -5 -2 -10 -4 -10 -3 0 -8 5 -11 10
-3 6 -1 10 4 10 6 0 11 -4 11 -10z m-1850 -21 c0 -5 -34 -9 -75 -9 -93 0 -99
18 -7 22 72 3 82 2 82 -13z m150 5 c0 -9 -11 -14 -30 -14 -28 0 -38 9 -25 22
12 12 55 5 55 -8z m130 -9 c0 -14 -5 -25 -11 -25 -5 0 -7 5 -4 10 3 6 -1 10
-9 10 -22 0 -20 17 2 23 9 3 18 5 20 6 1 0 2 -10 2 -24z m200 10 c0 -11 -12
-15 -50 -15 -61 0 -67 17 -7 23 23 2 45 4 50 5 4 1 7 -5 7 -13z m250 -3 c0
-14 -10 -17 -63 -15 -84 2 -84 2 -66 16 9 7 42 13 73 14 46 1 56 -2 56 -15z
m270 9 c0 -6 -4 -13 -10 -16 -5 -3 -10 1 -10 9 0 9 5 16 10 16 6 0 10 -4 10
-9z m281 -8 c8 -8 5 -14 -11 -23 -15 -8 -20 -8 -16 -1 5 7 -11 11 -48 11 -41
0 -56 4 -56 14 0 17 114 16 131 -1z m219 -6 c0 -8 -17 -11 -50 -9 -29 2 -50 9
-50 15 0 8 17 11 50 9 29 -2 50 -9 50 -15z m138 5 c2 -7 -6 -12 -17 -12 -21 0
-27 11 -14 24 9 9 26 2 31 -12z m140 9 c26 -2 10 -21 -18 -21 -19 0 -30 5 -30
14 0 8 8 13 18 11 9 -2 23 -4 30 -4z m242 -8 c0 -16 -9 -18 -70 -15 -38 2 -70
8 -70 12 0 5 30 11 68 13 37 2 68 4 70 5 1 1 2 -6 2 -15z m-1810 -2 c0 -5 -7
-11 -15 -15 -15 -5 -20 5 -8 17 9 10 23 9 23 -2z m1487 -6 c9 -24 -1 -27 -15
-5 -8 13 -8 20 -2 20 6 0 13 -7 17 -15z m-1647 -10 c-7 -9 -15 -13 -19 -10 -3
3 1 10 9 15 21 14 24 12 10 -5z m290 11 c0 -3 -4 -8 -10 -11 -5 -3 -10 -1 -10
4 0 6 5 11 10 11 6 0 10 -2 10 -4z m1510 -16 c0 -5 -2 -10 -4 -10 -3 0 -8 5
-11 10 -3 6 -1 10 4 10 6 0 11 -4 11 -10z m-1099 -36 c10 -12 1 -14 -54 -14
-53 0 -65 3 -69 18 -4 15 2 17 53 14 34 -2 63 -10 70 -18z m-743 -2 c3 -10
-13 -12 -69 -10 -48 2 -74 7 -77 16 -3 10 13 12 69 10 48 -2 74 -7 77 -16z
m150 1 c2 -9 -9 -13 -37 -13 -30 0 -41 4 -41 16 0 11 9 14 37 12 20 -2 38 -9
41 -15z m140 0 c2 -9 -8 -13 -32 -13 -34 0 -44 8 -29 24 11 11 56 2 61 -11z
m186 2 c4 -12 -6 -15 -64 -15 -56 0 -70 3 -70 15 0 12 14 15 64 15 48 0 65 -4
70 -15z m104 -8 c3 -15 -2 -18 -25 -15 -17 2 -29 10 -31 21 -3 15 2 18 25 15
17 -2 29 -10 31 -21z m662 8 c0 -12 -14 -15 -65 -15 -53 0 -63 3 -59 15 5 11
22 15 65 15 46 0 59 -3 59 -15z m95 -4 c0 -8 -12 -18 -27 -22 -23 -6 -28 -4
-28 10 0 10 3 21 7 25 12 12 48 2 48 -13z m185 4 c0 -12 -14 -15 -70 -15 -64
0 -81 6 -63 23 3 4 35 7 70 7 49 0 63 -3 63 -15z m118 -2 c2 -9 -8 -13 -32
-13 -34 0 -44 8 -29 24 11 11 56 2 61 -11z m156 2 c4 -12 -4 -15 -39 -15 -35
0 -43 3 -39 15 4 9 19 15 39 15 20 0 35 -6 39 -15z m206 0 c0 -12 -14 -15 -70
-15 -58 0 -68 3 -64 15 5 11 22 15 70 15 50 0 64 -3 64 -15z"/>
<path d="M945 1740 c-4 -6 40 -10 124 -10 81 0 131 4 131 10 0 6 -48 10 -124
10 -73 0 -127 -4 -131 -10z"/>
<path d="M1915 1740 c4 -6 58 -10 131 -10 76 0 124 4 124 10 0 6 -50 10 -131
10 -84 0 -128 -4 -124 -10z"/>
<path d="M860 1680 c-10 -7 9 -10 63 -10 45 0 77 4 77 10 0 13 -120 13 -140 0z"/>
<path d="M2120 1680 c0 -6 32 -10 76 -10 47 0 73 4 69 10 -3 6 -37 10 -76 10
-39 0 -69 -4 -69 -10z"/>
<path d="M765 1590 c-4 -6 28 -10 89 -10 52 0 98 4 101 10 4 6 -28 10 -89 10
-52 0 -98 -4 -101 -10z"/>
<path d="M2165 1590 c3 -5 46 -10 96 -10 53 0 89 4 89 10 0 6 -39 10 -96 10
-61 0 -93 -4 -89 -10z"/>
<path d="M700 1510 c-10 -7 26 -10 113 -10 78 0 127 4 127 10 0 13 -220 13
-240 0z"/>
<path d="M2186 1511 c-6 -9 186 -21 217 -13 9 2 17 8 17 13 0 12 -227 12 -234
0z"/>
<path d="M655 1440 c-4 -7 54 -10 167 -10 115 0 168 4 158 10 -20 13 -317 13
-325 0z"/>
<path d="M2135 1440 c-4 -7 53 -10 165 -10 112 0 169 3 165 10 -4 6 -70 10
-165 10 -95 0 -161 -4 -165 -10z"/>
<path d="M605 1360 c-8 -13 325 -13 345 0 10 6 -44 10 -162 10 -107 0 -179 -4
-183 -10z"/>
<path d="M2165 1360 c4 -6 73 -10 176 -10 106 0 169 4 169 10 0 6 -65 10 -176
10 -114 0 -173 -3 -169 -10z"/>
<path d="M570 1285 c0 -13 27 -15 180 -15 163 0 209 7 164 24 -9 3 -90 6 -180
6 -139 0 -164 -2 -164 -15z"/>
<path d="M2203 1293 c-41 -16 6 -23 168 -23 140 0 180 3 177 13 -4 9 -48 12
-169 14 -90 1 -170 -1 -176 -4z"/>
<path d="M550 1220 c0 -6 78 -10 214 -10 133 0 217 4 221 10 4 7 -70 10 -214
10 -141 0 -221 -4 -221 -10z"/>
<path d="M2135 1220 c4 -6 88 -10 221 -10 136 0 214 4 214 10 0 6 -80 10 -221
10 -144 0 -218 -3 -214 -10z"/>
<path d="M530 1160 c0 -6 80 -10 220 -10 140 0 220 4 220 10 0 6 -80 10 -220
10 -140 0 -220 -4 -220 -10z"/>
<path d="M2150 1160 c0 -6 80 -10 220 -10 140 0 220 4 220 10 0 6 -80 10 -220
10 -140 0 -220 -4 -220 -10z"/>
<path d="M510 1090 c0 -6 87 -10 241 -10 157 0 238 3 234 10 -4 6 -95 10 -241
10 -149 0 -234 -4 -234 -10z"/>
<path d="M2135 1090 c-4 -7 77 -10 234 -10 154 0 241 4 241 10 0 6 -85 10
-234 10 -146 0 -237 -4 -241 -10z"/>
<path d="M500 1026 c0 -8 8 -13 18 -11 9 2 131 4 270 4 161 1 252 5 252 11 0
6 -97 10 -270 10 -226 0 -270 -2 -270 -14z"/>
<path d="M2080 1030 c0 -6 104 -10 270 -12 211 -2 270 0 270 10 0 9 -61 12
-270 12 -168 0 -270 -4 -270 -10z"/>
<path d="M1765 1700 c-10 -11 -16 -22 -13 -25 3 -3 13 6 22 20 20 30 16 32 -9
5z"/>
<path d="M1937 1548 c-10 -17 -16 -33 -13 -35 2 -3 12 9 21 27 9 18 15 33 13
35 -2 2 -11 -10 -21 -27z"/>
<path d="M1230 1169 c-17 -13 -18 -17 -5 -10 33 17 51 31 40 31 -5 0 -21 -10
-35 -21z"/>
<path d="M597 1862 c-24 -27 -21 -59 8 -78 23 -15 27 -15 50 0 29 19 33 56 9
80 -21 21 -47 20 -67 -2z"/>
<path d="M710 1860 c0 -15 5 -20 18 -18 9 2 17 10 17 18 0 8 -8 16 -17 18 -13
2 -18 -3 -18 -18z"/>
<path d="M2377 1873 c-14 -13 -6 -33 13 -33 13 0 20 7 20 20 0 19 -20 27 -33
13z"/>
<path d="M2457 1862 c-24 -27 -21 -59 8 -78 23 -15 27 -15 50 0 29 19 33 56 9
80 -21 21 -47 20 -67 -2z"/>
<path d="M493 1694 c-8 -21 13 -42 28 -27 13 13 5 43 -11 43 -6 0 -13 -7 -17
-16z"/>
<path d="M2591 1696 c-9 -10 -8 -16 4 -26 19 -16 41 1 32 24 -8 20 -21 20 -36
2z"/>
<path d="M414 1515 c-9 -23 3 -45 25 -45 23 0 35 28 20 46 -15 18 -38 18 -45
-1z"/>
<path d="M2660 1516 c-18 -22 -5 -48 22 -44 17 2 23 10 23 28 0 29 -26 38 -45
16z"/>
<path d="M273 1444 c-3 -8 -1 -20 5 -26 14 -14 42 -3 42 17 0 9 -4 13 -10 10
-5 -3 -10 -1 -10 4 0 17 -20 13 -27 -5z m27 -15 c0 -5 -4 -9 -10 -9 -5 0 -10
7 -10 16 0 8 5 12 10 9 6 -3 10 -10 10 -16z"/>
<path d="M2820 1456 c0 -2 7 -7 16 -10 8 -3 12 -2 9 4 -6 10 -25 14 -25 6z"/>
<path d="M2802 1435 c3 -21 48 -35 48 -15 0 6 -5 8 -11 5 -6 -4 -17 1 -25 11
-14 18 -15 18 -12 -1z"/>
<path d="M224 1245 c-18 -44 -18 -70 1 -89 8 -8 15 -26 15 -41 l0 -27 -26 31
c-14 17 -32 31 -40 31 -35 0 4 -82 46 -95 13 -4 20 -15 20 -32 l0 -26 -22 20
c-22 20 -61 43 -72 43 -3 0 -6 -11 -6 -24 0 -29 20 -46 63 -55 24 -5 33 -13
36 -31 3 -23 2 -24 -15 -9 -11 8 -36 20 -56 26 -37 11 -38 10 -38 -13 0 -32
25 -80 45 -88 9 -3 28 -6 41 -6 20 0 24 -5 24 -31 0 -25 -3 -29 -13 -21 -7 6
-32 15 -55 20 l-42 10 0 -32 c0 -45 33 -92 74 -107 33 -12 36 -17 36 -51 0
-21 5 -38 10 -38 6 0 10 18 10 39 0 35 3 40 29 46 46 10 91 71 91 125 0 17 -5
19 -32 14 -18 -4 -45 -12 -60 -19 -27 -13 -28 -13 -28 15 0 26 4 29 37 32 41
3 70 35 75 83 3 35 -12 36 -75 5 -38 -18 -38 -18 -35 3 2 15 13 23 37 28 37 8
56 23 66 57 10 33 -22 29 -68 -9 l-37 -30 0 25 c0 16 7 27 20 31 42 13 81 95
46 95 -8 0 -26 -14 -40 -31 l-26 -31 0 27 c0 15 7 33 15 41 19 20 19 57 0 94
-20 39 -33 38 -51 -5z m76 -320 c-13 -14 -26 -22 -29 -19 -3 3 5 14 18 25 33
27 39 24 11 -6z m-71 -19 c-3 -3 -11 5 -18 17 -13 21 -12 21 5 5 10 -10 16
-20 13 -22z m8 -152 c1 -18 0 -22 -4 -9 -3 11 -15 31 -26 45 l-22 24 25 -16
c16 -10 26 -25 27 -44z m60 36 c-14 -11 -28 -30 -30 -43 -4 -19 -4 -18 -6 5
-1 17 7 32 21 42 33 23 45 19 15 -4z"/>
<path d="M2846 1258 c-20 -28 -21 -92 -1 -108 8 -7 15 -23 15 -37 0 -23 -1
-23 -37 14 -31 32 -37 35 -41 20 -7 -35 8 -65 43 -86 22 -13 35 -28 35 -41 0
-19 -3 -18 -42 10 -47 34 -68 38 -68 12 0 -26 40 -60 74 -64 22 -2 30 -9 31
-25 1 -17 -1 -20 -11 -12 -7 6 -34 17 -59 24 -41 13 -45 13 -44 -3 3 -58 30
-94 75 -101 33 -5 39 -10 42 -33 3 -26 3 -27 -25 -14 -15 8 -43 16 -60 20 -28
5 -33 3 -33 -15 0 -54 58 -129 101 -129 15 0 19 -8 19 -40 0 -22 5 -40 10 -40
6 0 10 17 10 38 0 34 3 39 34 50 41 15 63 46 72 101 l7 41 -34 -6 c-19 -4 -44
-13 -56 -20 -22 -14 -23 -13 -23 16 0 26 3 30 28 30 36 0 68 34 77 82 l7 37
-38 -11 c-22 -5 -47 -14 -56 -19 -14 -8 -18 -6 -18 11 0 16 6 20 30 20 34 0
70 31 70 60 0 11 -3 20 -7 20 -12 0 -77 -41 -85 -54 -4 -6 -8 1 -8 17 0 20 7
30 23 36 29 11 43 29 49 64 7 35 -15 36 -47 1 -21 -22 -24 -23 -27 -7 -2 10 5
30 15 45 18 24 18 30 6 69 -17 51 -31 58 -53 27z m1 -344 c10 -26 -1 -22 -26
9 -24 29 -24 30 -2 18 12 -7 25 -19 28 -27z m58 6 c-10 -11 -20 -18 -23 -15
-7 6 18 35 31 35 5 0 2 -9 -8 -20z m-65 -130 c11 -11 20 -30 20 -42 -1 -20 -3
-18 -14 8 -8 18 -22 37 -33 43 -10 6 -12 11 -5 11 6 0 21 -9 32 -20z m73 -2
c-11 -13 -23 -30 -26 -38 -4 -11 -6 -10 -6 4 -1 21 26 56 42 56 6 0 1 -10 -10
-22z"/>
<path d="M323 502 l-132 -3 10 -28 c12 -33 8 -378 -5 -403 -7 -16 -2 -18 51
-18 l59 0 -4 90 -4 90 51 0 51 0 0 39 0 38 -50 -5 -50 -5 0 54 0 54 85 -3 85
-3 -1 33 c-2 75 1 73 -146 70z"/>
<path d="M690 502 l-45 -3 3 -204 c2 -134 -1 -211 -8 -225 -10 -19 -8 -20 48
-20 l59 0 -4 55 c-2 30 -4 80 -6 110 -2 30 -1 52 2 50 3 -1 24 -51 46 -109
l40 -106 45 0 45 0 0 227 0 228 -54 -3 c-38 -3 -50 -7 -42 -15 7 -7 11 -51 11
-111 0 -54 -3 -96 -7 -92 -4 4 -26 55 -48 114 l-40 107 -45 -3z"/>
<path d="M1102 502 c-35 -2 -60 -7 -57 -12 7 -11 -83 -401 -96 -414 -19 -20
-7 -26 50 -26 l60 0 3 38 c3 36 4 37 44 40 37 3 42 0 48 -22 3 -13 3 -32 0
-40 -5 -14 3 -16 56 -16 60 0 62 1 55 23 -25 82 -95 395 -91 409 5 23 3 24
-72 20z m22 -249 c7 -31 6 -33 -19 -33 -19 0 -26 4 -22 14 3 8 9 32 13 52 8
41 14 34 28 -33z"/>
<path d="M1355 503 l-50 -4 3 -204 c2 -133 -1 -212 -8 -225 -10 -20 -8 -20
120 -20 l130 0 0 53 0 52 -76 -3 -76 -4 4 181 c2 100 3 180 3 179 0 -1 -22 -3
-50 -5z"/>
<path d="M2042 502 c-34 -2 -60 -7 -57 -12 5 -7 -65 -326 -91 -417 -6 -22 -4
-23 49 -23 l56 0 3 38 c3 36 4 37 44 40 37 3 42 0 48 -22 3 -13 3 -32 0 -40
-5 -14 3 -16 56 -16 54 0 61 2 56 17 -18 45 -97 406 -92 418 7 19 1 20 -72 17z
m22 -244 c6 -35 5 -38 -17 -38 -23 0 -23 1 -13 50 11 53 19 50 30 -12z"/>
<path d="M2863 502 l-52 -3 -32 -97 c-17 -53 -35 -100 -38 -105 -4 -4 -22 40
-41 98 l-34 105 -55 0 -56 0 0 -225 0 -225 50 0 50 0 -2 122 c-3 133 -3 133
45 4 16 -44 33 -81 39 -83 6 -2 24 34 41 79 16 46 33 90 36 98 3 8 4 -38 3
-103 l-2 -117 55 0 55 0 -2 226 c-2 125 -4 227 -5 228 -2 1 -26 0 -55 -2z"/>
<path d="M495 275 l0 -225 55 0 55 0 0 225 0 225 -55 0 -55 0 0 -225z"/>
<path d="M1666 489 c8 -13 6 -403 -3 -424 -4 -12 6 -15 54 -15 l59 0 -4 89 -4
90 48 3 c48 3 49 3 52 39 l3 36 -50 -5 -51 -5 0 52 0 51 86 0 87 0 -7 31 c-3
17 -6 40 -6 50 0 18 -10 19 -136 19 -96 0 -133 -3 -128 -11z"/>
<path d="M2235 275 l0 -225 55 0 55 0 -3 50 c-3 38 -1 50 10 50 15 0 48 -59
48 -85 0 -11 13 -15 55 -15 64 0 65 3 26 80 l-28 54 25 38 c50 77 36 197 -29
253 -28 23 -39 25 -122 25 l-92 0 0 -225z m154 129 c24 -30 28 -97 10 -137
-10 -22 -52 -51 -61 -42 -1 2 -2 49 0 104 4 110 13 124 51 75z"/>
</g>
</svg>
